<svg width="52" height="71" viewBox="0 0 52 71" fill="none" xmlns="http://www.w3.org/2000/svg">
<path d="M4.42034 34.5998C3.38144 35.2982 2.46412 33.707 3.4367 33.0014C5.09083 31.799 6.78549 30.6579 8.52435 29.5707C9.62587 28.8291 10.7237 28.0875 11.8252 27.3459C11.1253 27.6879 10.4216 28.0263 9.72166 28.3683C8.77118 28.8291 7.7065 27.6699 8.53909 26.9139C10.6685 24.9844 12.9526 23.2384 15.3177 21.5932C14.7098 21.8452 14.102 22.0972 13.4904 22.3492C12.3484 22.8208 11.4642 21.4456 12.5068 20.7509L19.908 15.8082L18.6223 16.3445C17.5023 16.8125 16.5187 15.3402 17.6386 14.7462C20.0996 13.4358 22.461 11.9778 24.712 10.3759C23.7689 10.6999 22.8294 11.0203 21.8863 11.3443C20.8437 11.7006 20.1733 10.1491 21.1348 9.65229C21.9195 9.24549 22.7005 8.8351 23.4778 8.41751L23.0431 8.53631C21.9305 8.8315 21.4148 7.42393 22.2916 6.84434C22.8587 6.46826 23.4335 6.10339 24.0157 5.74996C23.942 5.45117 24.001 5.12718 24.2552 4.90398C25.3751 3.9176 26.5429 2.98522 27.7513 2.09964C27.7808 1.75765 27.9834 1.42645 28.4144 1.28246C28.7865 1.15646 29.1623 1.03046 29.5344 0.908062C30.4996 0.584069 30.9896 1.67125 30.5475 2.33723C30.7317 2.26523 30.9122 2.19324 31.0964 2.11764C32.1058 1.71445 32.8537 3.37761 31.8479 3.8096C31.6822 3.8816 31.5164 3.9572 31.3506 4.0292C32.3748 3.73761 32.9163 5.21718 32.0321 5.74277C31.4022 6.11716 30.7685 6.48795 30.1349 6.85514C30.6506 7.13594 30.8975 7.90992 30.3854 8.34191C29.4828 9.10869 28.5618 9.85388 27.6187 10.5739C27.7292 10.5271 27.8434 10.4803 27.9539 10.4335C29.096 9.95828 29.9801 11.3371 28.9376 12.0318C26.414 13.7166 23.8904 15.4014 21.3669 17.0897L24.0378 15.9846C24.1324 15.9459 24.2313 15.9181 24.3325 15.9018C25.3604 15.1458 26.4029 14.4078 27.4603 13.6878C28.3518 13.083 29.5123 14.4906 28.6428 15.1422C28.2229 15.459 27.8029 15.7722 27.3792 16.089C27.7402 16.4705 27.7955 17.1581 27.2245 17.5649C26.1119 18.3533 25.0104 19.1561 23.9199 19.9733C23.931 19.9805 23.9383 19.9877 23.9494 19.9949C23.9825 19.9841 24.0157 19.9697 24.0488 19.9589C24.933 19.6457 25.5556 20.7257 25.1062 21.3772C25.9867 21.1145 26.8045 22.2268 26.0751 22.918C25.3935 23.5624 24.712 24.2104 24.0304 24.8548C24.933 24.628 25.703 25.6432 24.9956 26.3847C24.3694 27.0435 23.7725 27.7239 23.2052 28.4259C24.0636 27.9939 24.9072 27.5367 25.7361 27.0471C26.053 26.8599 26.3808 26.8779 26.6424 27.0183C27.0661 26.8599 27.4971 26.7267 27.9429 26.6151C28.8528 26.3919 29.6265 27.5187 28.8897 28.1631C28.1676 28.7967 27.4418 29.4267 26.7124 30.0531C29.7002 28.3575 32.7579 26.7771 35.9372 25.4128C36.8545 25.0168 38.0482 26.1472 37.1198 26.8671L34.7104 28.7355C37.9413 27.0039 41.268 25.4452 44.7531 24.1708C45.6925 23.8288 46.3556 25.1068 45.6999 25.7188C45.361 26.0356 45.0183 26.3415 44.6647 26.6439C44.8636 26.5431 45.0626 26.4387 45.2615 26.3343C46.3814 25.7656 47.2619 27.2559 46.2451 27.9327C43.5963 29.6967 40.9733 31.493 38.3724 33.3146C39.846 32.537 41.3417 31.7918 42.8558 31.079C43.7805 30.6435 44.952 31.8314 44.0384 32.5334C42.3401 33.8402 40.6454 35.147 38.9471 36.4501C39.4002 36.2197 39.8533 35.993 40.3102 35.7698C41.2385 35.3198 42.3806 36.5077 41.4927 37.2241L28.6686 47.5379C29.2175 47.6027 29.6928 48.1571 29.5233 48.7115C29.0739 50.1695 27.976 51.181 26.834 52.1854C25.3788 53.4706 23.9236 54.7522 22.4647 56.0337C22.0595 56.3901 21.6579 56.7465 21.2527 57.1029C22.0042 56.6601 22.7557 56.2173 23.5073 55.7709C24.4651 55.2058 25.4377 56.4729 24.6899 57.2253L15.0745 66.8371C16.1871 66.3043 17.1744 67.8991 16.0545 68.4391C14.3598 69.2563 12.6652 70.0735 10.9669 70.8906C9.99428 71.3586 9.00327 70.2211 9.78428 69.4363L18.0586 61.1672C16.5961 62.0312 15.1335 62.8916 13.6709 63.7556C12.7389 64.3064 11.6742 63.0212 12.4884 62.3012C15.1667 59.9433 17.8413 57.5817 20.5195 55.2238L22.6747 53.323L16.8613 57.0129C15.9513 57.5889 14.8314 56.2425 15.6787 55.5585C20.7037 51.5158 25.7288 47.4767 30.7538 43.434C27.8323 45.3456 24.9809 47.3579 22.1368 49.3739C21.2564 49.9967 20.0959 48.5819 20.9543 47.9195C25.2793 44.5896 29.608 41.2596 33.9331 37.9297C29.4128 40.5829 25.0399 43.4628 20.7259 46.4075C19.8343 47.0159 18.6923 45.6228 19.5433 44.9532C21.4811 43.4304 23.4336 41.9256 25.4009 40.4353C25.213 40.5577 25.0251 40.6837 24.8335 40.8061C23.7873 41.49 22.8589 39.9025 23.8499 39.2077L34.4452 31.781C35.9667 30.7119 37.525 29.6679 39.0539 28.5879C32.6363 31.6766 26.6792 35.6114 20.7811 39.5065C19.8822 40.1005 18.7402 38.7181 19.5985 38.0521C22.5126 35.7914 25.4267 33.5342 28.3444 31.2734C24.0157 33.6998 19.8454 36.3853 15.6935 39.0745C14.7909 39.6613 13.6562 38.2933 14.5109 37.6201C16.1098 36.3673 17.6939 35.1002 19.267 33.815C17.1413 35.309 15.0119 36.7993 12.8862 38.2933C11.9947 38.9197 10.8932 37.5409 11.7037 36.8389C12.1347 36.4645 12.5694 36.0938 13.0004 35.7194C11.2358 36.7777 9.47114 37.8325 7.70649 38.8909C6.7818 39.4453 5.68765 38.1385 6.52392 37.4365C7.06179 36.9829 7.60334 36.5293 8.14121 36.0757C7.11337 36.7453 6.08921 37.4149 5.06136 38.0845C4.15878 38.6713 3.01672 37.2925 3.87878 36.6301C6.73023 34.4414 9.57798 32.2526 12.4294 30.0639C13.4352 29.2935 14.4593 28.5303 15.4577 27.7419C13.4167 28.8075 11.42 29.9487 9.47483 31.1654C7.78018 32.3066 6.08552 33.4514 4.38718 34.5962L4.42034 34.5998ZM20.2138 29.2323C20.4053 28.9587 20.6006 28.6923 20.7995 28.4259C20.4201 28.6059 20.0406 28.7859 19.6612 28.9623C19.6133 28.9875 19.5617 29.0019 19.5138 29.0163C18.637 29.7543 17.7602 30.4887 16.8834 31.2266C17.9923 30.5607 19.1049 29.8947 20.2138 29.2323ZM17.9223 22.3024C18.3939 21.9136 18.8691 21.5284 19.3443 21.1505C18.4897 21.7048 17.646 22.27 16.8097 22.846L17.9223 22.306L17.9223 22.3024Z" fill="#DC3545"/>
<path d="M0.227918 34.355C9.94772 22.6955 20.0396 11.3369 30.4885 0.296076C31.3211 -0.585906 32.6805 0.699268 31.8848 1.58485C32.4448 1.07006 33.6973 1.57765 33.5205 2.54243C32.1316 10.2499 30.0428 17.8277 27.2724 25.1896C26.8524 26.302 24.9699 25.8232 25.3935 24.6964C28.1605 17.3437 30.2515 9.76465 31.6416 2.04924C31.6674 1.89804 31.7227 1.77565 31.8001 1.67845C21.7648 12.2838 12.0684 23.1772 2.722 34.337C10.0532 35.5322 17.4544 36.2917 24.8888 36.6193C25.7803 36.6589 26.0382 37.6165 25.6551 38.1385C25.6477 38.2501 25.6219 38.3653 25.5667 38.4841C21.0008 48.2941 15.9678 57.8899 10.4843 67.2403C9.87271 68.2807 8.1891 67.3483 8.80065 66.3043C14.122 57.2248 19.0194 47.9142 23.4778 38.4013C16.2461 38.0305 9.04011 37.2493 1.90414 36.0721C1.69047 36.0361 1.52837 35.9533 1.41417 35.8418C0.625786 36.3925 -0.4831 35.2082 0.227918 34.355Z" fill="#4E4F66"/>
<path d="M10.3332 67.8919L41.5111 34.283C44.1121 31.4822 46.7093 28.6779 49.3102 25.8772C48.2456 26.1184 47.0335 26.0788 46.0646 26.158L25.3972 27.8427C24.1483 27.9435 24.1557 26.0932 25.3972 25.9924C29.608 25.6504 33.8189 25.3048 38.0297 24.9628L44.1526 24.4624C45.2357 24.3724 46.3225 24.286 47.4056 24.196C48.1461 24.1348 49.1813 24.2176 49.7118 23.638C50.4044 22.882 51.4875 23.6884 51.3254 24.4984C51.8927 24.7144 52.2796 25.4704 51.7454 26.0464L20.5674 59.6553C17.6165 62.8376 14.6656 66.0163 11.7147 69.1987C10.8821 70.0951 9.51166 68.7811 10.3369 67.8883L10.3332 67.8919Z" fill="#4E4F66"/>
</svg>
