<svg width="52" height="70" viewBox="0 0 52 70" fill="none" xmlns="http://www.w3.org/2000/svg">
<path d="M5.03354 34.1125C4.00803 34.801 3.10253 33.2323 4.06258 32.5366C5.69539 31.3512 7.3682 30.2261 9.08465 29.1542C10.172 28.4231 11.2557 27.6919 12.343 26.9608C11.6521 27.298 10.9575 27.6316 10.2665 27.9688C9.3283 28.4231 8.27734 27.2802 9.0992 26.5349C11.2011 24.6325 13.4558 22.9111 15.7904 21.2891C15.1904 21.5376 14.5904 21.786 13.9867 22.0345C12.8594 22.4994 11.9866 21.1436 13.0158 20.4586L20.3216 15.5855L19.0524 16.1143C17.9469 16.5757 16.976 15.1241 18.0815 14.5385C20.5107 13.2466 22.8417 11.8091 25.0636 10.2297C24.1327 10.5492 23.2054 10.865 22.2744 11.1845C21.2453 11.5358 20.5834 10.0061 21.5326 9.51634C22.3071 9.11528 23.0781 8.71067 23.8454 8.29896L23.4163 8.41608C22.3181 8.70712 21.8089 7.31937 22.6744 6.74795C23.2342 6.37716 23.8017 6.01743 24.3763 5.66898C24.3036 5.3744 24.3618 5.05497 24.6127 4.83491C25.7182 3.86243 26.871 2.94318 28.0638 2.07007C28.0929 1.73289 28.2929 1.40636 28.7184 1.26439C29.0857 1.14017 29.4566 1.01595 29.8239 0.895275C30.7767 0.575845 31.2603 1.64771 30.8239 2.30432C31.0058 2.23333 31.184 2.16235 31.3658 2.08782C32.3622 1.6903 33.1004 3.33004 32.1076 3.75595C31.944 3.82693 31.7803 3.90147 31.6167 3.97245C32.6277 3.68497 33.1622 5.1437 32.2895 5.66188C31.6676 6.031 31.0421 6.39657 30.4166 6.75859C30.9258 7.03543 31.1694 7.79851 30.6639 8.22442C29.773 8.98041 28.8638 9.7151 27.9329 10.4249C28.042 10.3788 28.1547 10.3327 28.2638 10.2865C29.3911 9.81803 30.2639 11.1774 29.2348 11.8624C26.7437 13.5234 24.2527 15.1845 21.7617 16.849L24.3982 15.7594C24.4916 15.7213 24.5892 15.6939 24.6891 15.6778C25.7037 14.9325 26.7328 14.2049 27.7765 13.495C28.6566 12.8988 29.8021 14.2865 28.9438 14.9289C28.5293 15.2412 28.1147 15.55 27.6965 15.8624C28.0529 16.2386 28.1074 16.9165 27.5438 17.3175C26.4455 18.0948 25.3582 18.8863 24.2818 19.692C24.2927 19.6991 24.3 19.7062 24.3109 19.7133C24.3436 19.7026 24.3763 19.6884 24.4091 19.6778C25.2818 19.369 25.8964 20.4338 25.4528 21.0762C26.3219 20.8171 27.1292 21.9138 26.4092 22.5952C25.7364 23.2305 25.0636 23.8694 24.3909 24.5047C25.2818 24.2811 26.0419 25.282 25.3437 26.0131C24.7254 26.6626 24.1363 27.3334 23.5763 28.0255C24.4236 27.5996 25.2564 27.1489 26.0746 26.6662C26.3873 26.4816 26.711 26.4994 26.9692 26.6378C27.3874 26.4816 27.8129 26.3503 28.2529 26.2403C29.1511 26.0202 29.9148 27.1311 29.1875 27.7665C28.4747 28.3911 27.7583 29.0122 27.0383 29.6298C29.9875 27.9581 33.0059 26.4 36.1442 25.0548C37.0497 24.6644 38.2279 25.7789 37.3115 26.4887L34.9332 28.3308C38.1225 26.6236 41.4063 25.0868 44.8465 23.8304C45.7738 23.4932 46.4284 24.7532 45.7811 25.3565C45.4465 25.6689 45.1083 25.9705 44.7592 26.2687C44.9556 26.1693 45.1519 26.0664 45.3483 25.9634C46.4538 25.4027 47.323 26.8721 46.3193 27.5393C43.7046 29.2784 41.1154 31.0495 38.548 32.8454C40.0026 32.0788 41.479 31.3441 42.9736 30.6413C43.8864 30.2119 45.0428 31.3831 44.141 32.0752C42.4645 33.3636 40.7917 34.6519 39.1153 35.9368C39.5626 35.7096 40.0098 35.486 40.4608 35.266C41.3772 34.8223 42.5045 35.9936 41.6281 36.6998L28.9693 46.8684C29.5111 46.9323 29.9803 47.4788 29.813 48.0254C29.3693 49.4629 28.2856 50.4602 27.1583 51.4504C25.7219 52.7175 24.2854 53.981 22.8454 55.2445C22.4453 55.5959 22.0489 55.9473 21.6489 56.2987C22.3908 55.8621 23.1326 55.4256 23.8745 54.9855C24.82 54.4282 25.78 55.6775 25.0418 56.4193L15.5504 65.8958C16.6487 65.3705 17.6233 66.9428 16.5178 67.4752C14.8449 68.2808 13.1721 69.0865 11.4957 69.8922C10.5356 70.3536 9.5574 69.232 10.3283 68.4583L18.496 60.3057C17.0523 61.1575 15.6086 62.0058 14.1649 62.8576C13.2449 63.4007 12.1939 62.1336 12.9976 61.4237C15.6414 59.099 18.2815 56.7707 20.9252 54.446L23.0526 52.572L17.3142 56.2099C16.4159 56.7778 15.3104 55.4504 16.1468 54.776C21.1071 50.7903 26.0673 46.808 31.0276 42.8223C28.1438 44.7069 25.3291 46.6909 22.5217 48.6785C21.6526 49.2925 20.507 47.8976 21.3544 47.2446C25.6237 43.9616 29.8966 40.6785 34.1659 37.3955C29.7039 40.0113 25.3873 42.8506 21.1289 45.7539C20.2489 46.3537 19.1215 44.9802 19.9616 44.32C21.8744 42.8187 23.8018 41.3351 25.7437 39.8658C25.5582 39.9864 25.3727 40.1106 25.1836 40.2313C24.1509 40.9057 23.2345 39.3405 24.2127 38.6555L34.6714 31.3334C36.1733 30.2793 37.7116 29.25 39.2207 28.1853C32.8859 31.2305 27.0056 35.1098 21.1834 38.9501C20.2961 39.5357 19.1688 38.1728 20.0161 37.5162C22.8926 35.2873 25.7691 33.0619 28.6493 30.833C24.3763 33.2252 20.2598 35.8729 16.1614 38.5241C15.2704 39.1027 14.1504 37.754 14.994 37.0903C16.5723 35.8551 18.136 34.6058 19.6888 33.3387C17.5905 34.8117 15.4886 36.281 13.3903 37.754C12.5103 38.3715 11.423 37.0122 12.223 36.3201C12.6485 35.951 13.0776 35.5854 13.5031 35.2163C11.7612 36.2597 10.0192 37.2997 8.27734 38.3431C7.36456 38.8897 6.28451 37.6013 7.11001 36.9092C7.64094 36.462 8.17551 36.0148 8.70645 35.5676C7.69185 36.2278 6.68089 36.888 5.6663 37.5481C4.77534 38.1266 3.64801 36.7673 4.49896 36.1142C7.31365 33.9563 10.1247 31.7984 12.9394 29.6404C13.9322 28.8809 14.9431 28.1285 15.9286 27.3512C13.914 28.4018 11.943 29.5269 10.0229 30.7265C8.35007 31.8516 6.67726 32.9803 5.00081 34.1089L5.03354 34.1125ZM20.6234 28.8206C20.8125 28.5508 21.0053 28.2882 21.2016 28.0255C20.8271 28.203 20.4525 28.3805 20.0779 28.5544C20.0307 28.5792 19.9798 28.5934 19.9325 28.6076C19.067 29.3352 18.2015 30.0592 17.336 30.7868C18.4306 30.1302 19.5288 29.4736 20.6234 28.8206ZM18.3615 21.9883C18.827 21.605 19.2961 21.2252 19.7652 20.8526C18.9215 21.3991 18.0887 21.9564 17.2633 22.5242L18.3615 21.9919V21.9883Z" fill="#DC3545"/>
<path d="M0.895149 33.8711C10.4897 22.3759 20.4514 11.1773 30.7658 0.291907C31.5876 -0.577652 32.9295 0.689421 32.144 1.56253C32.6968 1.05499 33.9332 1.55543 33.7586 2.50663C32.3877 10.1055 30.3257 17.5766 27.591 24.8348C27.1765 25.9315 25.3182 25.4595 25.7364 24.3485C28.4677 17.0994 30.5317 9.62712 31.904 2.02038C31.9294 1.87131 31.984 1.75064 32.0604 1.65481C22.1544 12.1108 12.583 22.8508 3.35709 33.8534C10.5938 35.0317 17.8996 35.7806 25.2382 36.1036C26.1182 36.1426 26.3728 37.0867 25.9946 37.6013C25.9873 37.7114 25.9619 37.8249 25.9073 37.9421C21.4003 47.6139 16.4322 57.0746 11.0193 66.2933C10.4156 67.319 8.75372 66.3998 9.35739 65.3705C14.6101 56.4188 19.4444 47.2394 23.8454 37.8604C16.7069 37.4949 9.59377 36.7247 2.54977 35.5641C2.33885 35.5286 2.17884 35.447 2.06611 35.3369C1.28789 35.88 0.193295 34.7123 0.895149 33.8711Z" fill="#4E4F66"/>
<path d="M10.8702 66.9357L41.6463 33.8001C44.2137 31.0388 46.7775 28.274 49.3449 25.5127C48.2939 25.7505 47.0975 25.7115 46.1411 25.7895L25.74 27.4506C24.5073 27.55 24.5145 25.7256 25.74 25.6263C29.8966 25.2891 34.0532 24.9484 38.2098 24.6112L44.2537 24.1179C45.3228 24.0291 46.3956 23.9439 47.4648 23.8552C48.1957 23.7949 49.2176 23.8765 49.7413 23.3051C50.4249 22.5597 51.4941 23.3548 51.3341 24.1533C51.8941 24.3663 52.2759 25.1116 51.7486 25.6795L20.9725 58.8151C18.0597 61.9526 15.1468 65.0865 12.2339 68.2241C11.412 69.1078 10.0592 67.8123 10.8738 66.9321L10.8702 66.9357Z" fill="#4E4F66"/>
</svg>
