<svg width="98" height="98" viewBox="0 0 98 98" fill="none" xmlns="http://www.w3.org/2000/svg">
<path d="M40.3649 62.1841C39.6399 63.2046 38.2194 62.0404 38.8798 61.0366C40.0022 59.3271 41.184 57.6606 42.4264 56.029C43.1947 54.9459 43.9595 53.8642 44.7278 52.7811C44.1939 53.3484 43.6553 53.9137 43.1214 54.481C42.3951 55.248 40.9895 54.54 41.5011 53.5385C42.811 50.9809 44.3305 48.5403 45.9614 46.1653C45.4819 46.6159 45.0023 47.0665 44.5193 47.5184C43.6177 48.3632 42.3045 47.3893 43.0342 46.3709L48.2106 39.1311L47.1975 40.0874C46.3152 40.921 44.8747 39.8914 45.7124 38.9399C47.5513 36.8442 49.2449 34.6457 50.7843 32.3515C50.0166 32.9879 49.2511 33.6197 48.4834 34.2561C47.6341 34.958 46.4584 33.7436 47.1823 32.939C47.7725 32.2811 48.3581 31.6212 48.9376 30.9558L48.573 31.2206C47.6366 31.89 46.6566 30.7555 47.2719 29.9035C47.6695 29.3512 48.0782 28.8067 48.4979 28.2703C48.3234 28.0168 48.264 27.6929 48.4229 27.3943C49.1219 26.0757 49.8847 24.7907 50.7021 23.5352C50.6088 23.2049 50.6812 22.8234 51.0336 22.5364C51.3371 22.287 51.6441 22.0363 51.9489 21.7903C52.7373 21.146 53.5799 21.9898 53.4017 22.7691C53.5486 22.6366 53.692 22.5055 53.8376 22.3697C54.6394 21.6357 55.9268 22.9272 55.1387 23.6868C55.0091 23.8127 54.8807 23.942 54.7511 24.068C55.6061 23.4332 56.6356 24.6258 55.9943 25.43C55.5373 26.0029 55.0757 26.5738 54.6127 27.1412C55.1944 27.2216 55.6989 27.8584 55.3726 28.4435C54.7993 29.4798 54.2011 30.5024 53.5734 31.5093C53.6602 31.4264 53.7505 31.3423 53.8374 31.2594C54.7377 30.4113 56.0522 31.3885 55.3225 32.4069C53.5573 34.875 51.7922 37.343 50.0283 39.8143L52.1362 37.8364C52.211 37.7668 52.2937 37.7058 52.3826 37.6548C53.0769 36.5843 53.7913 35.5254 54.5259 34.4782C55.1461 33.5973 56.7292 34.5038 56.1462 35.4207C55.8653 35.8655 55.5831 36.3069 55.2988 36.753C55.7714 36.9823 56.0661 37.606 55.6757 38.1884C54.9136 39.3191 54.167 40.4594 53.4358 41.6093C53.4486 41.6121 53.4581 41.6163 53.471 41.6191C53.4982 41.5973 53.5241 41.5721 53.5513 41.5503C54.2677 40.9448 55.2318 41.735 55.0417 42.5034C55.7724 41.9463 56.9307 42.6978 56.4927 43.6022C56.0829 44.4459 55.6744 45.2929 55.2646 46.1366C56.0287 45.6054 57.1078 46.2829 56.7083 47.2267C56.3553 48.0643 56.0375 48.9117 55.7549 49.7689C56.4052 49.0614 57.0328 48.3355 57.6351 47.5846C57.8653 47.2975 58.1784 47.1984 58.4727 47.2373C58.813 46.9394 59.1692 46.6624 59.5467 46.4004C60.319 45.87 61.441 46.6506 60.9795 47.5138C60.528 48.3617 60.0718 49.2076 59.6109 50.0514C61.8064 47.4092 64.1082 44.85 66.6 42.45C67.3181 41.7553 68.8342 42.3908 68.2203 43.3924L66.6269 45.9918C69.0371 43.23 71.5981 40.596 74.4078 38.172C75.1657 37.5201 76.2377 38.4811 75.8406 39.2854C75.6355 39.7016 75.4232 40.1089 75.1992 40.5168C75.3497 40.3522 75.4989 40.1842 75.6481 40.0162C76.4947 39.0883 77.8451 40.1712 77.1332 41.1637C75.2789 43.7501 73.4601 46.3577 71.671 48.981C72.7746 47.7327 73.9104 46.5069 75.0748 45.305C75.7858 44.5707 77.3017 45.2679 76.6951 46.2475C75.5683 48.0702 74.445 49.8916 73.3169 51.711C73.6593 51.3353 74.003 50.9629 74.3515 50.5927C75.0609 49.8436 76.5491 50.5512 75.9718 51.5352L67.6211 65.7161C68.1575 65.5827 68.798 65.9333 68.8354 66.5118C68.9303 68.0345 68.2609 69.3688 67.5476 70.7121C66.6406 72.4286 65.7324 74.1418 64.8207 75.8563C64.5676 76.333 64.3179 76.8083 64.0648 77.2849C64.6113 76.6051 65.1578 75.9252 65.703 75.242C66.3993 74.3747 67.757 75.2163 67.3234 76.1845L61.7262 88.5745C62.5786 87.6828 64.0659 88.8257 63.2091 89.7267C61.9127 91.0901 60.6163 92.4535 59.3164 93.8183C58.5721 94.5998 57.2429 93.886 57.6961 92.8758L62.5135 82.2159C61.4507 83.541 60.3867 84.8628 59.324 86.188C58.6467 87.0327 57.1965 86.2068 57.7037 85.2455C59.3756 82.0931 61.0428 78.9386 62.7148 75.7862L64.0589 73.2464L59.9251 78.7529C59.2775 79.6134 57.7539 78.7498 58.3048 77.8104C61.5764 72.2525 64.8494 66.698 68.1211 61.14C66.0639 63.9608 64.1078 66.8512 62.1599 69.7423C61.5564 70.6361 59.9708 69.7228 60.5396 68.7998C63.4084 64.1561 66.2807 59.511 69.1496 54.8673C65.8589 58.9469 62.7862 63.1867 59.7915 67.4662C59.1726 68.3504 57.6118 67.4508 58.1712 66.5237C59.4457 64.4143 60.7403 62.3165 62.0538 60.2269C61.9213 60.4079 61.79 60.5921 61.6541 60.7743C60.9171 61.784 59.4875 60.6271 60.169 59.6268L67.4552 48.9345C68.5006 47.3966 69.5893 45.8692 70.6378 44.3185C65.7262 49.4762 61.5445 55.2626 57.4039 60.9911C56.773 61.8644 55.216 60.975 55.7836 60.0486C57.7105 56.9037 59.6386 53.7623 61.5689 50.6161C58.3772 54.4159 55.4254 58.4022 52.492 62.3853C51.8551 63.2532 50.3101 62.3746 50.8717 61.4428C51.9245 59.7057 52.9585 57.9604 53.9758 56.2022C52.5154 58.3511 51.0503 60.4979 49.5899 62.6468C48.9773 63.5478 47.4595 62.6474 47.9695 61.7043C48.2404 61.2017 48.516 60.7012 48.7869 60.1986C47.5103 61.8124 46.2323 63.4228 44.9557 65.0366C44.2867 65.8821 42.8012 65.0464 43.3354 64.0942C43.6782 63.4797 44.0245 62.864 44.3673 62.2496C43.6425 63.2392 42.9211 64.2276 42.1963 65.2173C41.5594 66.0852 40.0037 65.1991 40.576 64.2748C42.4697 61.2194 44.36 58.1654 46.2537 55.11C46.9222 54.0339 47.6105 52.958 48.2658 51.8676C46.7332 53.5858 45.2687 55.3591 43.8792 57.1849C42.6973 58.8514 41.5167 60.5212 40.3326 62.1924L40.3649 62.1841ZM53.2416 51.5806C53.3241 51.257 53.4126 50.9388 53.5045 50.6193C53.2132 50.9218 52.9219 51.2243 52.6292 51.5234C52.5934 51.5639 52.5502 51.5956 52.5105 51.626C51.9511 52.6263 51.3905 53.6232 50.8312 54.6234C51.6331 53.6085 52.4384 52.5922 53.2416 51.5806ZM48.6486 45.9081C48.9523 45.3777 49.2607 44.8494 49.5716 44.3278C48.9681 45.1485 48.3787 45.9754 47.8 46.8098L48.6499 45.9114L48.6486 45.9081Z" fill="#DC3545"/>
<path d="M36.3566 63.437C41.3277 49.0945 46.7532 34.9021 52.6251 20.8805C53.0922 19.7612 54.8181 20.4829 54.3868 21.5926C54.7286 20.9131 56.0798 20.9452 56.2554 21.9102C57.6805 29.611 58.405 37.438 58.4156 45.3039C58.4159 46.4929 56.4857 46.7104 56.4837 45.5067C56.4731 37.6506 55.7502 29.8217 54.3235 22.113C54.2942 21.9624 54.3026 21.8284 54.3406 21.7101C48.7018 35.178 43.4818 48.7955 38.6833 62.5386C45.9637 61.0652 53.1557 59.1597 60.2259 56.8384C61.0739 56.5603 61.6536 57.3649 61.4797 57.9886C61.5123 58.0956 61.5289 58.2125 61.5192 58.3431C60.7155 69.1337 59.3993 79.8892 57.5747 90.5742C57.3704 91.7636 55.4659 91.4865 55.669 90.2937C57.4375 79.9194 58.7278 69.4788 59.5359 59.004C52.6399 61.2133 45.623 63.0297 38.5316 64.4508C38.319 64.4926 38.1381 64.4725 37.9918 64.4085C37.449 65.2024 35.993 64.4864 36.3566 63.437Z" fill="#4E4F66"/>
<path d="M57.6637 91.2371L74.9494 48.7774C76.3925 45.2381 77.8308 41.6967 79.2739 38.1575C78.3632 38.7594 77.2154 39.1508 76.337 39.5673L57.5993 48.4486C56.4666 48.9843 55.8195 47.2508 56.9452 46.7177C60.7634 44.9094 64.5802 43.0977 68.3984 41.2894L73.9491 38.6571C74.9305 38.19 75.9166 37.7251 76.898 37.258C77.569 36.9391 78.5667 36.6506 78.8581 35.9209C79.2387 34.9689 80.537 35.3404 80.6716 36.1554C81.2787 36.1569 81.9078 36.7274 81.6116 37.455L64.3259 79.9147C62.6904 83.9347 61.0535 87.9512 59.418 91.9712C58.956 93.104 57.2095 92.3593 57.6659 91.2324L57.6637 91.2371Z" fill="#4E4F66"/>
<path d="M0.616 24.8H18.76L31.584 53.696L42.336 24.8H46.648L31.864 64H17.976L0.616 24.8Z" fill="#4E4F66"/>
</svg>
