<svg width="50" height="30" viewBox="0 0 50 30" fill="none" xmlns="http://www.w3.org/2000/svg">
<path d="M50 28.7518C48.1813 29.2143 47.0562 28.7721 46.0469 27.2564L38.8687 17.3252L37.8312 15.9502L29.4484 27.2893C28.4906 28.6533 27.4859 29.2471 25.6984 28.7643L36.4328 14.3549L26.4391 1.33926C28.1578 1.00489 29.3453 1.1752 30.4 2.71426L37.8453 12.7689L45.3453 2.76895C46.3063 1.40489 47.3391 0.886136 49.0641 1.38926L45.1891 6.52676L39.9391 13.3627C39.3141 14.1439 39.4 14.6783 39.975 15.433L50 28.7518ZM0.0125 14.1143L0.890625 9.79551C3.28125 1.24864 13.0781 -2.30293 19.8344 2.97832C23.7828 6.08457 24.7641 10.4783 24.5688 15.4002H2.3125C1.97812 24.2596 8.35469 29.6064 16.4844 26.8783C19.3359 25.9205 21.0156 23.6877 21.8563 20.8939C22.2828 19.4939 22.9891 19.2752 24.3047 19.6752C23.6328 23.1689 22.1172 26.0877 18.9141 27.9143C14.1281 30.6486 7.29687 29.7643 3.70312 25.9643C1.5625 23.7596 0.678125 20.9658 0.28125 17.9783C0.21875 17.4846 0.09375 17.0143 0 16.5408C0.00833333 15.7325 0.0125 14.9242 0.0125 14.1158V14.1143ZM2.35313 13.5205H22.4656C22.3344 7.11426 18.3453 2.56426 12.8938 2.5252C6.90937 2.47832 2.6125 6.92051 2.35313 13.5205Z" fill="#18181B"/>
</svg>
