<svg width="194" height="431" viewBox="0 0 194 431" fill="none" xmlns="http://www.w3.org/2000/svg">
<g clip-path="url(#clip0_20_124)">
<path d="M68.2394 239.3L74.3933 220.602L85.5525 222.631L78.3438 242.168C78.5734 242.761 78.7221 243.397 78.7716 244.065C79.0405 247.694 76.3197 250.854 72.6946 251.124C69.0696 251.393 65.9129 248.669 65.644 245.04C65.4725 242.725 66.52 240.605 68.2394 239.3Z" fill="#FFB6B6"/>
<path d="M99.6215 116.096L94.4656 117.423L81.4947 176.825L78.6871 179.636L79.8511 182.195L78.6871 186.695L70.1304 229.42L89.0779 236.974L108.377 148.794L99.6215 116.096Z" fill="#374151"/>
<path d="M65.4845 217.568C65.4969 217.571 65.5083 217.574 65.5177 217.578C65.6768 217.642 65.6649 217.827 65.6611 217.888C65.6407 218.211 65.1832 219.926 64.6816 220.056C64.528 220.096 64.4578 220.546 64.4067 220.875C64.3707 221.106 64.3336 221.344 64.2676 221.543C62.5793 226.646 61.6877 230.674 61.6887 233.192C61.6895 235.099 62.4435 236.878 63.8117 238.2C65.1757 239.518 66.9655 240.215 68.8651 240.141L74.2981 239.95C76.1748 239.884 77.905 239.083 79.1701 237.694C80.4437 236.295 81.0849 234.481 80.9761 232.586C80.7728 229.048 78.9378 223.561 77.4343 219.581C77.3728 219.418 77.318 219.196 77.2651 218.981C77.22 218.797 77.1561 218.537 77.1029 218.41C77.0435 218.42 76.9977 218.398 76.9798 218.389C76.8397 218.316 76.8494 218.164 76.8619 217.972C76.8695 217.853 76.8875 217.575 76.8239 217.512C76.8146 217.503 76.7885 217.503 76.7739 217.505C76.6034 217.519 76.5381 217.428 76.5146 217.373C76.4445 217.211 76.5662 217.099 76.7875 216.898C76.9563 216.744 77.3517 216.384 77.2946 216.228C77.2797 216.187 77.1536 215.984 76.1183 215.946C75.8235 215.935 75.5854 215.819 75.4301 215.61C75.0546 215.105 75.2807 214.212 75.2905 214.174L76.0967 211.816C77.5861 207.465 77.0247 202.745 74.5563 198.866L74.527 198.82L74.4901 196.354L67.1934 196.464L67.2314 198.998L67.1894 199.051C64.6658 202.276 64.3913 206.727 66.3503 212.661L66.9065 214.346L66.8938 214.399C66.6625 215.364 66.3194 216.542 65.9982 216.677C65.9473 216.699 65.8934 216.704 65.8422 216.693C65.7286 216.82 65.5559 217.274 65.4845 217.568Z" fill="#E6E6E6"/>
<path d="M66.8954 192.623C66.6043 192.627 66.3712 192.867 66.3756 193.159L66.4289 196.716C66.4333 197.007 66.6735 197.241 66.9645 197.236L75.126 197.114C75.417 197.109 75.6501 196.869 75.6458 196.578L75.5924 193.02C75.5881 192.729 75.3479 192.496 75.0568 192.5L66.8954 192.623Z" fill="#CCCCCC"/>
<path d="M128.875 420.66L120.151 420.659L116.001 386.967L128.877 386.968L128.875 420.66Z" fill="#FFB6B6"/>
<path d="M129.182 429.771L102.354 429.77V429.431C102.354 423.657 107.029 418.976 112.796 418.976L117.697 415.254L126.841 418.977L129.183 418.977L129.182 429.771Z" fill="#2F2E41"/>
<path d="M81.0868 420.66L72.3624 420.659L68.2122 386.967L81.0885 386.968L81.0868 420.66Z" fill="#FFB6B6"/>
<path d="M81.3938 429.771L54.5651 429.77V429.431C54.5655 423.657 59.2406 418.976 65.0076 418.976L69.9088 415.254L79.0523 418.977L81.3943 418.977L81.3938 429.771Z" fill="#2F2E41"/>
<path d="M151.98 419.64C153.332 419.725 154.08 418.042 153.056 417.062L152.955 416.657C152.968 416.624 152.981 416.592 152.995 416.559C154.363 413.294 158.998 413.317 160.354 416.587C161.558 419.489 163.09 422.396 163.467 425.465C163.637 426.82 163.56 428.2 163.26 429.529C166.08 423.361 167.565 416.626 167.565 409.853C167.565 408.151 167.472 406.449 167.281 404.752C167.125 403.363 166.909 401.983 166.63 400.616C165.121 393.225 161.852 386.185 157.138 380.305C154.871 379.065 152.981 377.126 151.84 374.802C151.43 373.964 151.108 373.062 150.956 372.143C151.214 372.177 151.929 368.245 151.734 368.003C152.094 367.457 152.737 367.186 153.129 366.653C155.082 364.003 157.772 364.466 159.176 368.067C162.176 369.583 162.205 372.096 160.364 374.514C159.193 376.052 159.032 378.133 158.005 379.78C158.11 379.915 158.22 380.047 158.326 380.182C160.264 382.671 161.941 385.347 163.354 388.158C162.955 385.034 163.545 381.27 164.55 378.845C165.694 376.08 167.839 373.753 169.728 371.363C171.997 368.493 176.65 369.745 177.05 373.384C177.054 373.419 177.057 373.454 177.061 373.489C176.781 373.648 176.506 373.816 176.237 373.994C174.706 375.008 175.235 377.385 177.05 377.666L177.091 377.672C176.989 378.684 176.816 379.687 176.562 380.673C178.986 390.056 173.754 393.473 166.283 393.627C166.119 393.712 165.958 393.796 165.793 393.877C166.55 396.01 167.154 398.199 167.603 400.417C168.004 402.377 168.283 404.358 168.44 406.348C168.634 408.858 168.617 411.381 168.406 413.887L168.419 413.798C168.956 411.038 170.452 408.46 172.626 406.674C175.863 404.011 180.437 403.03 183.93 400.89C185.612 399.86 187.766 401.191 187.473 403.143L187.458 403.236C186.938 403.448 186.431 403.694 185.94 403.969C185.66 404.127 185.385 404.295 185.116 404.473C183.585 405.487 184.114 407.864 185.929 408.145L185.97 408.151C186 408.155 186.025 408.16 186.055 408.164C185.162 410.285 183.919 412.253 182.363 413.951C180.848 422.141 174.34 422.918 167.379 420.533H167.374C166.613 423.852 165.501 427.095 164.072 430.185H152.275C152.233 430.054 152.195 429.918 152.157 429.787C153.248 429.855 154.347 429.791 155.421 429.592C154.546 428.517 153.671 427.433 152.795 426.358C152.774 426.337 152.757 426.316 152.74 426.295C152.296 425.744 151.848 425.198 151.404 424.648L151.404 424.647C151.376 422.958 151.579 421.274 151.98 419.64Z" fill="#F2F2F2"/>
<path d="M20.0364 430.22C20.0364 430.653 20.3834 431 20.8155 431H186.629C187.061 431 187.408 430.653 187.408 430.22C187.408 429.788 187.061 429.44 186.629 429.44H20.8155C20.3834 429.44 20.0364 429.788 20.0364 430.22Z" fill="#CCCCCC"/>
<path d="M150.948 212.395L83.0379 215.654L64.7081 299.863L69.9452 313.651L62.549 320.196L69.9452 329.381L66.9922 403.062L82.7036 404.373L105.537 279.055L115.436 405.684L130.796 405.882L134.1 399.357L130.492 390.609L134.1 384.494C134.1 384.494 145.563 330.167 139.337 318.442L158.301 213.658L150.948 212.395Z" fill="#2F2E41"/>
<path d="M142.742 86.6845L116.845 88.907L113.082 98.2185L94.4656 117.423L80.7396 224.135C80.7396 224.135 78.5418 230.04 95.5624 225.452C112.583 220.864 157.987 226.101 157.987 226.101C163.552 219.23 162.39 212.292 155.018 205.291L152.095 184.81L168.718 108.069C169.675 103.646 166.697 99.3355 162.225 98.6736L146.885 96.4028L142.742 86.6845Z" fill="#374151"/>
<path d="M127.272 85.0333C138.105 85.0333 146.886 76.2417 146.886 65.3966C146.886 54.5516 138.105 45.7599 127.272 45.7599C116.44 45.7599 107.659 54.5516 107.659 65.3966C107.659 76.2417 116.44 85.0333 127.272 85.0333Z" fill="#FFB6B6"/>
<path d="M104.411 59.0159C103.067 63.5204 105.786 68.6719 109.314 65.048C110.859 63.461 110.792 61.4843 112.927 60.9128C114.651 60.4494 116.506 60.9791 118.078 61.8144C118.359 61.9619 119.616 58.282 119.882 58.4414C120.057 58.3242 119.246 62.0541 119.433 61.9524C120.817 61.2015 122.5 61.0117 124.02 61.4359C122.807 61.8251 121.749 62.6386 120.998 63.6657C121.525 64.0188 122.058 64.3728 122.603 64.6865C123.628 65.2786 132.976 64.7517 134.155 64.6338C139.811 64.0682 137.007 67.6769 139.341 72.8661C139.4 72.9959 139.459 73.1274 139.518 73.2607L139.608 73.593C139.46 72.1304 143.981 71.0405 143.718 73.0993C143.532 74.5611 142.269 77.8104 141.561 79.101C148.342 74.462 154.946 69.4934 149.32 58.7564C148.599 57.3787 149.21 55.5759 148.413 54.2326C147.614 52.8963 145.95 51.9586 144.478 52.4682C144.725 47.7988 139.064 44.3575 135.075 41.9304C131.079 39.5024 128.63 40.868 124.6 43.2412C122.718 44.3471 121.734 45.4366 119.722 44.5731C115.85 42.911 114.15 44.4927 113.821 47.2095C113.653 48.5904 110.923 46.9372 109.73 47.6569C108.349 48.4919 108.113 50.2402 107.905 51.9225C109.123 52.0431 110.315 52.53 111.259 53.32C109.996 53.1728 108.696 53.4811 107.592 54.1074C107.57 54.1185 107.548 54.1296 107.532 54.1416C106.802 56.9219 106.877 57.5383 104.411 59.0159Z" fill="#2F2E41"/>
<path d="M87.286 100.761C87.286 109.449 93.1778 117.958 102.997 114.993C111.305 112.485 118.709 109.449 118.709 100.761C118.709 92.0741 113.659 79.2265 102.997 83.5335C93.4583 78.2902 87.286 92.0741 87.286 100.761Z" fill="#BC0000"/>
<path d="M103.563 83.8866C104.817 81.6019 104.903 78.8109 103.738 76.4718C102.701 74.3881 100.646 72.8367 98.3816 72.3487C97.1492 72.0831 96.6226 73.9782 97.8595 74.2447C99.6188 74.6238 101.13 75.7297 101.974 77.3306C102.881 79.0528 102.795 81.2031 101.867 82.8942C101.258 84.0039 102.954 84.9971 103.563 83.8866Z" fill="#3F3D56"/>
<path d="M116.726 97.6537L132.306 109.665L126.694 119.533L110.674 106.247C110.039 106.267 109.39 106.197 108.745 106.022C105.236 105.073 103.16 101.455 104.108 97.942C105.056 94.4287 108.669 92.3501 112.178 93.2993C114.416 93.9047 116.067 95.597 116.726 97.6537Z" fill="#FFB6B6"/>
<path d="M177.81 166.462C175.25 166.462 172.687 165.563 170.637 163.748L113.863 113.511L128.943 94.8329L160.224 131.67L157.077 103.599L159.47 102.857C165.506 100.985 171.932 104.272 173.953 110.266L188.102 152.215C189.394 156.131 188.388 160.375 185.475 163.29C183.371 165.398 180.593 166.462 177.81 166.462Z" fill="#374151"/>
</g>
<defs>
<clipPath id="clip0_20_124">
<rect width="194" height="431" fill="white"/>
</clipPath>
</defs>
</svg>
