<svg width="31" height="50" viewBox="0 0 31 50" fill="none" xmlns="http://www.w3.org/2000/svg">
<path d="M7.68225 50C11.9229 50 15.3646 46.2666 15.3646 41.6667V33.3334H7.68225C3.44166 33.3334 0 37.0667 0 41.6667C0 46.2666 3.44166 50 7.68225 50Z" fill="#0ACF83"/>
<path d="M0 24.9998C0 20.3998 3.44166 16.6665 7.68225 16.6665H15.3646V33.3332H7.68225C3.44166 33.3332 0 29.5998 0 24.9998Z" fill="#A259FF"/>
<path d="M0 8.33329C0 3.73332 3.44166 0 7.68225 0H15.3646V16.6666H7.68225C3.44166 16.6666 0 12.9333 0 8.33329Z" fill="#F24E1E"/>
<path d="M15.3646 0H23.0469C27.2875 0 30.7292 3.73332 30.7292 8.33329C30.7292 12.9333 27.2875 16.6666 23.0469 16.6666H15.3646V0Z" fill="#FF7262"/>
<path d="M30.7292 24.9998C30.7292 29.5998 27.2875 33.3332 23.0469 33.3332C18.8063 33.3332 15.3646 29.5998 15.3646 24.9998C15.3646 20.3998 18.8063 16.6665 23.0469 16.6665C27.2875 16.6665 30.7292 20.3998 30.7292 24.9998Z" fill="#1ABCFE"/>
</svg>
