<svg width="24" height="50" viewBox="0 0 24 50" fill="none" xmlns="http://www.w3.org/2000/svg">
<path d="M16.0161 5.57283C13.9177 3.08307 12.1107 0.554275 11.7415 0.0291647C11.7327 0.019949 11.7222 0.0126119 11.7105 0.00759851C11.6988 0.00258512 11.6862 0 11.6735 0C11.6607 0 11.6481 0.00258512 11.6364 0.00759851C11.6248 0.0126119 11.6142 0.019949 11.6054 0.0291647C11.2363 0.554366 9.4292 3.08307 7.33067 5.57283C-10.6813 28.5449 10.1676 44.0478 10.1676 44.0478L10.3424 44.1645C10.4978 46.557 10.8865 50 10.8865 50H12.441C12.441 50 12.8295 46.5765 12.985 44.1646L13.1599 44.0284C13.1793 44.0479 34.0282 28.545 16.0161 5.57283ZM11.6637 43.6976C11.6637 43.6976 10.731 42.9002 10.4784 42.4918V42.4527L11.6054 17.4382C11.6054 17.3604 11.7221 17.3604 11.7221 17.4382L12.849 42.4527V42.4918C12.5964 42.9002 11.6637 43.6977 11.6637 43.6977V43.6976Z" fill="#01EC64"/>
</svg>
