<svg width="75" height="15" viewBox="0 0 75 15" fill="none" xmlns="http://www.w3.org/2000/svg">
<path d="M4.15559 12.7965C3.41182 12.7965 2.77675 12.7135 2.25039 12.5476C1.73547 12.3699 1.31209 12.1566 0.980254 11.9078C0.65986 11.659 0.419564 11.4042 0.259367 11.1436C0.0991697 10.8711 0.0133498 10.64 0.00190711 10.4504C-0.00953555 10.3201 0.0305137 10.2135 0.122055 10.1305C0.213596 10.0357 0.310859 9.98834 0.413843 9.98834H2.37054C2.40486 9.98834 2.43347 9.99426 2.45636 10.0061C2.47924 10.018 2.51357 10.0417 2.55934 10.0772C2.70809 10.1601 2.85685 10.2668 3.0056 10.3971C3.15436 10.5156 3.326 10.6222 3.52052 10.717C3.71505 10.8118 3.94962 10.8592 4.22425 10.8592C4.54464 10.8592 4.81354 10.794 5.03095 10.6637C5.24836 10.5334 5.35707 10.3379 5.35707 10.0772C5.35707 9.88763 5.30558 9.7336 5.20259 9.61511C5.09961 9.48478 4.88792 9.36036 4.56753 9.24188C4.25857 9.12339 3.78943 9.00491 3.16008 8.88642C2.56506 8.74424 2.04442 8.56059 1.59816 8.33547C1.15189 8.09849 0.808614 7.79636 0.568318 7.42905C0.328023 7.0499 0.207875 6.59373 0.207875 6.06054C0.207875 5.5866 0.356629 5.13043 0.654138 4.69203C0.951647 4.25363 1.38647 3.89818 1.9586 3.62566C2.53073 3.34129 3.23446 3.19911 4.06977 3.19911C4.73344 3.19911 5.30558 3.28205 5.78617 3.44793C6.2782 3.60196 6.69014 3.80339 7.02198 4.05221C7.36525 4.30103 7.62271 4.55577 7.79435 4.81644C7.96599 5.07711 8.05754 5.31408 8.06898 5.52736C8.08042 5.64584 8.04609 5.75248 7.96599 5.84727C7.88589 5.93021 7.79435 5.97168 7.69137 5.97168H5.90632C5.86055 5.97168 5.81477 5.96575 5.769 5.9539C5.72323 5.93021 5.68318 5.90651 5.64886 5.88281C5.51155 5.81172 5.37423 5.71693 5.23692 5.59845C5.09961 5.47996 4.93941 5.37332 4.75633 5.27854C4.57325 5.18375 4.34439 5.13635 4.06977 5.13635C3.76082 5.13635 3.52052 5.20744 3.34888 5.34963C3.17724 5.49181 3.09142 5.67546 3.09142 5.90059C3.09142 6.05462 3.13719 6.1968 3.22874 6.32713C3.33172 6.45747 3.53197 6.57595 3.82947 6.68259C4.13843 6.78923 4.6133 6.90771 5.25408 7.03805C6.04363 7.16838 6.67297 7.38165 7.14212 7.67787C7.61127 7.96223 7.94311 8.29992 8.13763 8.69092C8.33216 9.07008 8.42942 9.47293 8.42942 9.89948C8.42942 10.4682 8.2635 10.9718 7.93167 11.4102C7.61127 11.8486 7.13068 12.1922 6.48989 12.441C5.8491 12.678 5.071 12.7965 4.15559 12.7965Z" fill="#3B3B43"/>
<path d="M14.192 12.7965C13.2308 12.7965 12.4183 12.6365 11.7547 12.3166C11.1024 11.9967 10.599 11.5405 10.2442 10.9481C9.90096 10.3438 9.70644 9.62696 9.66067 8.79756C9.64923 8.56059 9.6435 8.29399 9.6435 7.99778C9.6435 7.68972 9.64923 7.42313 9.66067 7.198C9.70644 6.35675 9.91241 5.63992 10.2786 5.04749C10.6447 4.45506 11.1539 3.99889 11.8062 3.67898C12.4698 3.35907 13.2651 3.19911 14.192 3.19911C15.1303 3.19911 15.9255 3.35907 16.5778 3.67898C17.2414 3.99889 17.7563 4.45506 18.1225 5.04749C18.4887 5.63992 18.6946 6.35675 18.7404 7.198C18.7519 7.42313 18.7576 7.68972 18.7576 7.99778C18.7576 8.29399 18.7519 8.56059 18.7404 8.79756C18.6946 9.62696 18.4944 10.3438 18.1397 10.9481C17.7964 11.5405 17.2929 11.9967 16.6292 12.3166C15.977 12.6365 15.1646 12.7965 14.192 12.7965ZM14.192 10.6282C14.7069 10.6282 15.0788 10.4682 15.3076 10.1483C15.5479 9.82838 15.6852 9.34852 15.7196 8.7087C15.731 8.53097 15.7367 8.29399 15.7367 7.99778C15.7367 7.70157 15.731 7.4646 15.7196 7.28687C15.6852 6.65889 15.5479 6.18495 15.3076 5.86504C15.0788 5.53328 14.7069 5.3674 14.192 5.3674C13.6885 5.3674 13.3166 5.53328 13.0763 5.86504C12.836 6.18495 12.7044 6.65889 12.6815 7.28687C12.6701 7.4646 12.6644 7.70157 12.6644 7.99778C12.6644 8.29399 12.6701 8.53097 12.6815 8.7087C12.7044 9.34852 12.836 9.82838 13.0763 10.1483C13.3166 10.4682 13.6885 10.6282 14.192 10.6282Z" fill="#3B3B43"/>
<path d="M20.8748 12.6187C20.7489 12.6187 20.6459 12.5773 20.5658 12.4943C20.4857 12.4114 20.4457 12.3047 20.4457 12.1744V3.82116C20.4457 3.69083 20.4857 3.58419 20.5658 3.50125C20.6459 3.41831 20.7489 3.37684 20.8748 3.37684H22.8486C22.9745 3.37684 23.0775 3.41831 23.1576 3.50125C23.2377 3.58419 23.2777 3.69083 23.2777 3.82116V4.49653C23.5752 4.12922 23.9643 3.82116 24.4449 3.57234C24.9255 3.32352 25.4919 3.19911 26.1441 3.19911C26.8078 3.19911 27.3914 3.35314 27.8948 3.66121C28.4098 3.96927 28.8103 4.42544 29.0963 5.02972C29.3938 5.62214 29.5426 6.35083 29.5426 7.21578V12.1744C29.5426 12.3047 29.4968 12.4114 29.4053 12.4943C29.3252 12.5773 29.2279 12.6187 29.1135 12.6187H26.9508C26.8364 12.6187 26.7334 12.5773 26.6419 12.4943C26.5618 12.4114 26.5217 12.3047 26.5217 12.1744V7.32241C26.5217 6.76553 26.3901 6.33898 26.127 6.04277C25.8752 5.73471 25.4976 5.58067 24.9941 5.58067C24.525 5.58067 24.1474 5.73471 23.8613 6.04277C23.5867 6.33898 23.4494 6.76553 23.4494 7.32241V12.1744C23.4494 12.3047 23.4036 12.4114 23.3121 12.4943C23.232 12.5773 23.1347 12.6187 23.0203 12.6187H20.8748Z" fill="#3B3B43"/>
<path d="M34.1357 12.7965C33.5178 12.7965 32.9628 12.678 32.4708 12.441C31.9902 12.1922 31.6069 11.8604 31.3208 11.4457C31.0347 11.031 30.8917 10.563 30.8917 10.0417C30.8917 9.20041 31.2235 8.53689 31.8872 8.0511C32.5509 7.55346 33.432 7.21578 34.5305 7.03805L36.676 6.70036V6.45154C36.676 6.02499 36.5902 5.69916 36.4185 5.47404C36.2469 5.24891 35.9322 5.13635 35.4745 5.13635C35.1541 5.13635 34.8909 5.20152 34.6849 5.33185C34.4904 5.46219 34.3359 5.63992 34.2215 5.86504C34.1185 6.01907 33.9755 6.09609 33.7924 6.09609H31.8701C31.7442 6.09609 31.6469 6.06054 31.5783 5.98945C31.5096 5.90651 31.481 5.81172 31.4924 5.70508C31.4924 5.49181 31.5668 5.24892 31.7156 4.9764C31.8758 4.69203 32.1161 4.41359 32.4365 4.14107C32.7569 3.86856 33.1688 3.64343 33.6723 3.46571C34.1758 3.28798 34.7822 3.19911 35.4917 3.19911C36.2354 3.19911 36.8705 3.28798 37.3969 3.46571C37.9232 3.64343 38.3466 3.89225 38.667 4.21216C38.9988 4.53208 39.2448 4.91123 39.405 5.34963C39.5652 5.77618 39.6453 6.25012 39.6453 6.77145V12.1744C39.6453 12.3047 39.5996 12.4114 39.508 12.4943C39.4279 12.5773 39.3307 12.6187 39.2162 12.6187H37.2252C37.0993 12.6187 36.9964 12.5773 36.9163 12.4943C36.8362 12.4114 36.7961 12.3047 36.7961 12.1744V11.5524C36.6474 11.7775 36.4471 11.9848 36.1954 12.1744C35.9436 12.364 35.6461 12.5121 35.3028 12.6187C34.971 12.7372 34.582 12.7965 34.1357 12.7965ZM34.9424 10.7703C35.2742 10.7703 35.5718 10.6993 35.8349 10.5571C36.1096 10.403 36.3212 10.172 36.47 9.86393C36.6302 9.54402 36.7103 9.14709 36.7103 8.67315V8.42433L35.2514 8.69092C34.7136 8.78571 34.3188 8.93382 34.067 9.13524C33.8267 9.32482 33.7066 9.54994 33.7066 9.81061C33.7066 10.012 33.7638 10.1838 33.8782 10.326C33.9927 10.4682 34.1414 10.5808 34.3245 10.6637C34.5076 10.7348 34.7136 10.7703 34.9424 10.7703Z" fill="#3B3B43"/>
<path d="M46.0808 12.6187C45.3484 12.6187 44.7134 12.5002 44.1756 12.2633C43.6492 12.0144 43.243 11.6353 42.9569 11.1258C42.6708 10.6045 42.5278 9.93502 42.5278 9.11747V0.444321C42.5278 0.313987 42.5679 0.20735 42.648 0.124411C42.7395 0.0414702 42.8425 0 42.9569 0H44.9479C45.0738 0 45.1768 0.0414702 45.2569 0.124411C45.337 0.20735 45.377 0.313987 45.377 0.444321V8.86865C45.377 9.2715 45.4514 9.59141 45.6002 9.82839C45.7489 10.0654 46.0007 10.1838 46.3554 10.1838H47.677C47.8029 10.1838 47.9059 10.2253 47.986 10.3083C48.0661 10.3912 48.1061 10.4978 48.1061 10.6282V12.1744C48.1061 12.3047 48.0661 12.4114 47.986 12.4943C47.9059 12.5773 47.8029 12.6187 47.677 12.6187H46.0808Z" fill="#3B3B43"/>
<path d="M49.9563 12.6187C49.8305 12.6187 49.7275 12.5773 49.6474 12.4943C49.5673 12.4114 49.5272 12.3047 49.5272 12.1744L49.5101 6.70036C49.5101 6.57003 49.5501 6.46339 49.6302 6.38045C49.7103 6.29751 49.8133 6.25604 49.9392 6.25604H51.9645C52.0789 6.25604 52.1762 6.29751 52.2563 6.38045C52.3478 6.46339 52.3936 6.57003 52.3936 6.70036L52.4108 12.1744C52.4108 12.3047 52.365 12.4114 52.2735 12.4943C52.1934 12.5773 52.0961 12.6187 51.9817 12.6187H49.9563Z" fill="url(#paint0_linear_139_258)"/>
<path d="M40.2465 3.26857C40.2465 2.81727 40.5999 2.45142 41.0357 2.45142H51.6892C52.125 2.45142 52.4783 2.81727 52.4783 3.26857V4.08571C52.4783 4.537 52.125 4.90285 51.6892 4.90285H41.0357C40.5999 4.90285 40.2465 4.537 40.2465 4.08571V3.26857Z" fill="url(#paint1_linear_139_258)"/>
<path d="M54.6564 15C54.5696 15 54.4986 14.9673 54.4434 14.9019C54.3881 14.8447 54.3605 14.7753 54.3605 14.6936V6.60386C54.3605 6.51398 54.3881 6.44043 54.4434 6.38323C54.4986 6.32603 54.5696 6.29743 54.6564 6.29743H55.994C56.073 6.29743 56.14 6.32603 56.1953 6.38323C56.2584 6.44043 56.29 6.51398 56.29 6.60386V7.04512C56.4794 6.79998 56.724 6.59569 57.0239 6.43226C57.3238 6.26066 57.6907 6.17486 58.1247 6.17486C58.5193 6.17486 58.8665 6.24023 59.1664 6.37098C59.4663 6.49355 59.7228 6.6774 59.9358 6.92255C60.1568 7.16769 60.3265 7.46595 60.4448 7.81732C60.5632 8.16869 60.6303 8.57317 60.6461 9.03077C60.654 9.1942 60.6579 9.34537 60.6579 9.48429C60.6579 9.6232 60.654 9.77437 60.6461 9.9378C60.6303 10.3791 60.5632 10.7754 60.4448 11.1267C60.3265 11.4781 60.1607 11.7764 59.9477 12.0215C59.7346 12.2667 59.4742 12.4587 59.1664 12.5976C58.8665 12.7283 58.5193 12.7937 58.1247 12.7937C57.7381 12.7937 57.3987 12.7243 57.1067 12.5853C56.8226 12.4383 56.5859 12.234 56.3965 11.9725V14.6936C56.3965 14.7753 56.3689 14.8447 56.3136 14.9019C56.2584 14.9673 56.1874 15 56.1006 15H54.6564ZM57.4855 11.1513C57.7538 11.1513 57.963 11.0941 58.1129 10.9797C58.2628 10.8653 58.3694 10.71 58.4325 10.5139C58.5035 10.3178 58.5469 10.1012 58.5627 9.86426C58.5785 9.61094 58.5785 9.35763 58.5627 9.10432C58.5469 8.86735 58.5035 8.6508 58.4325 8.45469C58.3694 8.25857 58.2628 8.10332 58.1129 7.98892C57.963 7.87452 57.7538 7.81732 57.4855 7.81732C57.233 7.81732 57.0278 7.8786 56.87 8.00117C56.7122 8.11557 56.5977 8.26675 56.5267 8.45469C56.4557 8.64263 56.4123 8.84692 56.3965 9.06755C56.3886 9.2228 56.3847 9.37397 56.3847 9.52106C56.3847 9.66815 56.3886 9.8234 56.3965 9.98683C56.4044 10.1911 56.4478 10.3831 56.5267 10.5629C56.6056 10.7345 56.724 10.8775 56.8818 10.9919C57.0397 11.0981 57.2409 11.1513 57.4855 11.1513Z" fill="#3B3B43"/>
<path d="M64.6691 12.7937C63.7379 12.7937 62.9961 12.5322 62.4437 12.0093C61.8913 11.4863 61.6032 10.71 61.5795 9.6804C61.5795 9.6232 61.5795 9.54966 61.5795 9.45977C61.5795 9.36989 61.5795 9.30043 61.5795 9.2514C61.6032 8.60586 61.7413 8.05429 61.9939 7.59669C62.2543 7.13092 62.6094 6.77955 63.0592 6.54258C63.5169 6.29743 64.0496 6.17486 64.6572 6.17486C65.3517 6.17486 65.9238 6.31786 66.3736 6.60386C66.8313 6.88986 67.1746 7.278 67.4035 7.76829C67.6323 8.25857 67.7467 8.81832 67.7467 9.44752V9.74169C67.7467 9.83157 67.7191 9.90512 67.6639 9.96232C67.6086 10.0195 67.5376 10.0481 67.4508 10.0481H63.6629C63.6629 10.0563 63.6629 10.0685 63.6629 10.0849C63.6629 10.1012 63.6629 10.1176 63.6629 10.1339C63.6708 10.3709 63.7102 10.5874 63.7813 10.7835C63.8602 10.9797 63.9707 11.1349 64.1127 11.2493C64.2626 11.3637 64.4442 11.4209 64.6572 11.4209C64.815 11.4209 64.9453 11.3964 65.0479 11.3474C65.1583 11.2902 65.2491 11.2289 65.3201 11.1635C65.3911 11.09 65.4464 11.0287 65.4858 10.9797C65.5569 10.8898 65.6121 10.8367 65.6516 10.8203C65.6989 10.7958 65.7699 10.7835 65.8646 10.7835H67.3324C67.4114 10.7835 67.4745 10.8081 67.5218 10.8571C67.5771 10.9061 67.6008 10.9715 67.5929 11.0532C67.585 11.1921 67.5179 11.3596 67.3916 11.5557C67.2654 11.7519 67.0799 11.948 66.8353 12.1441C66.5985 12.332 66.2987 12.4873 65.9356 12.6099C65.5726 12.7324 65.1504 12.7937 64.6691 12.7937ZM63.6629 8.83466H65.6634V8.81015C65.6634 8.54049 65.6239 8.31169 65.545 8.12375C65.474 7.92763 65.3596 7.77646 65.2017 7.67023C65.0518 7.564 64.8703 7.51089 64.6572 7.51089C64.452 7.51089 64.2745 7.564 64.1245 7.67023C63.9746 7.77646 63.8602 7.92763 63.7813 8.12375C63.7024 8.31169 63.6629 8.54049 63.6629 8.81015V8.83466Z" fill="#3B3B43"/>
<path d="M69.1524 12.6711C69.0656 12.6711 68.9946 12.6425 68.9393 12.5853C68.8841 12.52 68.8565 12.4464 68.8565 12.3647V4.275C68.8565 4.18512 68.8841 4.11158 68.9393 4.05438C68.9946 3.99718 69.0656 3.96858 69.1524 3.96858H70.5255C70.6044 3.96858 70.6715 3.99718 70.7268 4.05438C70.7899 4.11158 70.8215 4.18512 70.8215 4.275V8.38115L72.4668 6.5058C72.5142 6.4486 72.5655 6.39958 72.6207 6.35872C72.676 6.31786 72.7549 6.29743 72.8575 6.29743H74.4436C74.5147 6.29743 74.5739 6.32603 74.6212 6.38323C74.6765 6.43226 74.7041 6.49355 74.7041 6.56709C74.7041 6.59978 74.6962 6.63655 74.6804 6.6774C74.6725 6.71826 74.6488 6.75095 74.6094 6.77546L72.4787 9.15335L74.9053 12.2054C74.9684 12.2707 75 12.332 75 12.3892C75 12.4709 74.9724 12.5404 74.9171 12.5976C74.8698 12.6466 74.8067 12.6711 74.7277 12.6711H73.106C72.9877 12.6711 72.9009 12.6507 72.8456 12.6099C72.7904 12.5608 72.7391 12.5118 72.6917 12.4628L70.8215 10.1339V12.3647C70.8215 12.4464 70.7899 12.52 70.7268 12.5853C70.6715 12.6425 70.6044 12.6711 70.5255 12.6711H69.1524Z" fill="#3B3B43"/>
<defs>
<linearGradient id="paint0_linear_139_258" x1="37.5" y1="0" x2="37.5" y2="15" gradientUnits="userSpaceOnUse">
<stop stop-color="#9A5151"/>
<stop offset="1" stop-color="#800000"/>
</linearGradient>
<linearGradient id="paint1_linear_139_258" x1="37.5" y1="0" x2="37.5" y2="15" gradientUnits="userSpaceOnUse">
<stop stop-color="#9A5151"/>
<stop offset="1" stop-color="#800000"/>
</linearGradient>
</defs>
</svg>
