<svg xmlns="http://www.w3.org/2000/svg" viewBox="0 0 300 300"><path fill="#EF4444" d="M211.91 155.96c2.82 1.94 5.31-2.48 2.67-4.44-4.49-3.34-9.09-6.51-13.81-9.53-2.99-2.06-5.97-4.12-8.96-6.18 1.9.95 3.81 1.89 5.71 2.84 2.58 1.28 5.47-1.94 3.21-4.04-5.78-5.36-11.98-10.21-18.4-14.78 1.65.7 3.3 1.4 4.96 2.1 3.1 1.31 5.5-2.51 2.67-4.44l-20.09-13.73 3.49 1.49c3.04 1.3 5.71-2.79 2.67-4.44-6.68-3.64-13.09-7.69-19.2-12.14 2.56.9 5.11 1.79 7.67 2.69 2.83.99 4.65-3.32 2.04-4.7-2.13-1.13-4.25-2.27-6.36-3.43l1.18.33c3.02.82 4.42-3.09 2.04-4.7a138.35 138.35 0 00-4.68-3.04c.2-.83.04-1.73-.65-2.35-3.04-2.74-6.21-5.33-9.49-7.79-.08-.95-.63-1.87-1.8-2.27-1.01-.35-2.03-.7-3.04-1.04-2.62-.9-3.95 2.12-2.75 3.97-.5-.2-.99-.4-1.49-.61-2.74-1.12-4.77 3.5-2.04 4.7.45.2.9.41 1.35.61-2.78-.81-4.25 3.3-1.85 4.76 1.71 1.04 3.43 2.07 5.15 3.09-1.4.78-2.07 2.93-.68 4.13 2.45 2.13 4.95 4.2 7.51 6.2-.3-.13-.61-.26-.91-.39-3.1-1.32-5.5 2.51-2.67 4.44 6.85 4.68 13.7 9.36 20.55 14.05l-7.25-3.07a3.59 3.59 0 00-.8-.23c-2.79-2.1-5.62-4.15-8.49-6.15-2.42-1.68-5.57 2.23-3.21 4.04 1.14.88 2.28 1.75 3.43 2.63-.98 1.06-1.13 2.97.42 4.1 3.02 2.19 6.01 4.42 8.97 6.69-.03.02-.05.04-.08.06-.09-.03-.18-.07-.27-.1-2.4-.87-4.09 2.13-2.87 3.94-2.39-.73-4.61 2.36-2.63 4.28 1.85 1.79 3.7 3.59 5.55 5.38-2.45-.63-4.54 2.19-2.62 4.25 1.7 1.83 3.32 3.72 4.86 5.67-2.33-1.2-4.62-2.47-6.87-3.83-.86-.52-1.75-.47-2.46-.08-1.15-.44-2.32-.81-3.53-1.12-2.47-.62-4.57 2.51-2.57 4.3 1.96 1.76 3.93 3.51 5.91 5.25-8.11-4.71-16.41-9.1-25.04-12.89-2.49-1.1-5.73 2.04-3.21 4.04l6.54 5.19c-8.77-4.81-17.8-9.14-27.26-12.68-2.55-.95-4.35 2.6-2.57 4.3.92.88 1.85 1.73 2.81 2.57-.54-.28-1.08-.57-1.62-.86-3.04-1.58-5.43 2.56-2.67 4.44 7.19 4.9 14.31 9.89 21.37 14.95-4-2.16-8.06-4.23-12.17-6.21-2.51-1.21-5.69 2.09-3.21 4.04 4.61 3.63 9.21 7.26 13.82 10.88-1.23-.64-2.46-1.27-3.7-1.89-2.52-1.25-5.62 2.05-3.21 4.04l34.81 28.65c-1.49.18-2.78 1.72-2.32 3.26 1.22 4.05 4.2 6.86 7.3 9.65 3.95 3.57 7.9 7.13 11.86 10.69 1.1.99 2.19 1.98 3.29 2.97-2.04-1.23-4.08-2.46-6.12-3.7-2.6-1.57-5.24 1.95-3.21 4.04l26.1 26.7c-3.02-1.48-5.7 2.95-2.66 4.45 4.6 2.27 9.2 4.54 13.81 6.81 2.64 1.3 5.33-1.86 3.21-4.04l-22.46-22.97c3.97 2.4 7.94 4.79 11.91 7.19 2.53 1.53 5.42-2.04 3.21-4.04-7.27-6.55-14.53-13.11-21.8-19.66l-5.85-5.28 15.78 10.25c2.47 1.6 5.51-2.14 3.21-4.04-13.64-11.23-27.28-22.45-40.92-33.68 7.93 5.31 15.67 10.9 23.39 16.5 2.39 1.73 5.54-2.2 3.21-4.04-11.74-9.25-23.49-18.5-35.23-27.75 12.27 7.37 24.14 15.37 35.85 23.55 2.42 1.69 5.52-2.18 3.21-4.04-5.26-4.23-10.56-8.41-15.9-12.55.51.34 1.02.69 1.54 1.03 2.84 1.9 5.36-2.51 2.67-4.44l-28.76-20.63c-4.13-2.97-8.36-5.87-12.51-8.87 17.42 8.58 33.59 19.51 49.6 30.33 2.44 1.65 5.54-2.19 3.21-4.04-7.91-6.28-15.82-12.55-23.74-18.83 11.75 6.74 23.07 14.2 34.34 21.67 2.45 1.63 5.53-2.17 3.21-4.04-4.34-3.48-8.64-7-12.91-10.57 5.77 4.15 11.55 8.29 17.32 12.44 2.42 1.74 5.41-2.09 3.21-4.04-1.17-1.04-2.35-2.07-3.52-3.11 4.79 2.94 9.58 5.87 14.37 8.81 2.51 1.54 5.48-2.09 3.21-4.04-1.46-1.26-2.93-2.52-4.39-3.78 2.79 1.86 5.57 3.72 8.36 5.58 2.45 1.63 5.55-2.2 3.21-4.04-7.74-6.08-15.47-12.16-23.21-18.24-2.73-2.14-5.51-4.26-8.22-6.45 5.54 2.96 10.96 6.13 16.24 9.51 4.6 3.17 9.2 6.35 13.81 9.53zm-42.87-14.91c-.52-.76-1.05-1.5-1.59-2.24 1.03.5 2.06 1 3.09 1.49.13.07.27.11.4.15 2.38 2.05 4.76 4.09 7.14 6.14-3.01-1.85-6.03-3.7-9.04-5.54zm6.22-19.25c-1.28-1.08-2.57-2.15-3.86-3.2 2.32 1.54 4.61 3.11 6.88 4.71l-3.02-1.5z"></path><path fill="#3B3B43" d="M223.29 155.28a1996.807 1996.807 0 00-82.14-94.61c-2.26-2.45-5.95 1.12-3.79 3.58-1.52-1.43-4.92-.02-4.44 2.66 3.77 21.41 9.44 42.46 16.96 62.91 1.14 3.09 6.25 1.76 5.1-1.37a366.327 366.327 0 01-16.96-62.91c-.07-.42-.22-.76-.43-1.03 27.24 29.46 53.56 59.72 78.93 90.72-19.9 3.32-39.99 5.43-60.17 6.34-2.42.11-3.12 2.77-2.08 4.22.02.31.09.63.24.96a960 960 0 0040.94 79.88c1.66 2.89 6.23.3 4.57-2.6a961.8 961.8 0 01-39.84-77.51c19.63-1.03 39.19-3.2 58.56-6.47.58-.1 1.02-.33 1.33-.64 2.14 1.53 5.15-1.76 3.22-4.13z"></path><path fill="#3B3B43" d="M195.86 248.44l-84.63-93.36c-7.06-7.78-14.11-15.57-21.17-23.35 2.89.67 6.18.56 8.81.78l18.7 1.56 37.4 3.12c3.39.28 3.37-4.86 0-5.14-11.43-.95-22.86-1.91-34.29-2.86l-16.62-1.39c-2.94-.25-5.89-.49-8.83-.74-2.01-.17-4.82.06-6.26-1.55-1.88-2.1-4.82.14-4.38 2.39-1.54.6-2.59 2.7-1.14 4.3l84.63 93.36c8.01 8.84 16.02 17.67 24.03 26.51 2.26 2.49 5.98-1.16 3.74-3.64z"></path></svg>