<svg width="114" height="159" viewBox="0 0 114 159" fill="none" xmlns="http://www.w3.org/2000/svg">
<path d="M104.309 77.484C106.587 79.048 108.598 75.4847 106.466 73.9046C102.839 71.2119 99.1241 68.6563 95.312 66.2217C92.8971 64.5609 90.4903 62.9002 88.0754 61.2395C89.61 62.0053 91.1526 62.7632 92.6871 63.529C94.7709 64.5609 97.105 61.965 95.2797 60.2721C90.6115 55.9509 85.604 52.041 80.4189 48.3567C81.7515 48.921 83.0841 49.4854 84.4248 50.0497C86.9286 51.1058 88.8669 48.0262 86.5813 46.4702L70.3555 35.4014L73.1742 36.6026C75.6295 37.6506 77.7859 34.3533 75.3307 33.0231C69.9356 30.0886 64.7585 26.8236 59.8237 23.2361C61.8913 23.9617 63.9508 24.6792 66.0184 25.4047C68.3041 26.2029 69.774 22.7282 67.666 21.6157C65.9457 20.7047 64.2335 19.7857 62.5294 18.8505L63.4824 19.1165C65.9215 19.7776 67.0522 16.6254 65.13 15.3275C63.8867 14.4853 62.6265 13.6682 61.3502 12.8767C61.5117 12.2076 61.3825 11.482 60.8252 10.9822C58.37 8.77323 55.8097 6.68522 53.1606 4.70201C53.096 3.93614 52.6518 3.19445 51.7068 2.87198C50.8911 2.58982 50.0673 2.30765 49.2516 2.03355C47.1355 1.30799 46.0614 3.74265 47.0305 5.23409C46.6267 5.07285 46.231 4.91162 45.8271 4.74232C43.6142 3.8394 41.9746 7.56395 44.1795 8.53137C44.543 8.69261 44.9064 8.86191 45.2698 9.02314C43.0246 8.37014 41.8373 11.6835 43.7757 12.8606C45.1568 13.699 46.5459 14.5294 47.9351 15.3517C46.8044 15.9805 46.2633 17.7138 47.3859 18.6812C49.3646 20.3984 51.3838 22.0671 53.4514 23.6795C53.2091 23.5747 52.9587 23.4699 52.7164 23.3651C50.2127 22.3009 48.2743 25.3886 50.56 26.9445C56.0924 30.7175 61.6248 34.4904 67.1572 38.2714L61.3018 35.7964C61.0943 35.7098 60.8775 35.6476 60.6556 35.611C58.4023 33.918 56.1166 32.2653 53.7987 30.653C51.8441 29.2986 49.3 32.4508 51.2061 33.9099C52.1268 34.6194 53.0475 35.3208 53.9763 36.0302C53.1848 36.8848 53.0637 38.4246 54.3155 39.3355C56.7547 41.1011 59.1695 42.8989 61.5602 44.7289C61.536 44.745 61.5198 44.7611 61.4956 44.7773C61.4229 44.7531 61.3502 44.7208 61.2775 44.6966C59.3392 43.9953 57.9742 46.4138 58.9596 47.873C57.0293 47.2845 55.2363 49.7756 56.8354 51.3235C58.3296 52.7665 59.8237 54.2176 61.3179 55.6607C59.3391 55.1528 57.6512 57.4262 59.2018 59.087C60.5749 60.5623 61.8833 62.086 63.127 63.658C61.2452 62.6906 59.3957 61.6668 57.5785 60.5703C56.8839 60.1511 56.1651 60.1914 55.5916 60.5058C54.6628 60.1511 53.7179 59.8528 52.7406 59.6029C50.7457 59.1031 49.0497 61.6264 50.665 63.0695C52.248 64.4884 53.839 65.8992 55.4382 67.302C48.8881 63.5048 42.1846 59.9657 35.2146 56.9103C33.2035 56.0235 30.5867 58.5549 32.622 60.1673L37.9041 64.3513C30.8209 60.4736 23.5278 56.9828 15.8874 54.129C13.8279 53.3631 12.3742 56.225 13.8118 57.5955C14.5548 58.305 15.3059 58.9902 16.0813 59.6674C15.6451 59.4417 15.209 59.2079 14.7729 58.9741C12.3176 57.7003 10.3873 61.0379 12.6164 62.5536C18.4235 66.5038 24.174 70.5267 29.876 74.606C26.6454 72.8646 23.3663 71.1958 20.0469 69.5996C18.0196 68.6241 15.4513 71.2845 17.4543 72.8565C21.1776 75.783 24.8928 78.7094 28.6161 81.6278C27.6226 81.1118 26.6292 80.6039 25.6277 80.1041C23.5925 79.0964 21.0887 81.7568 23.0352 83.3611L51.1496 106.458C49.9462 106.603 48.9043 107.845 49.2758 109.086C50.2611 112.351 52.6679 114.617 55.1717 116.866C58.3619 119.744 61.5521 122.614 64.7504 125.484C65.6388 126.282 66.5192 127.08 67.4076 127.878C65.76 126.887 64.1124 125.895 62.4648 124.896C60.3649 123.63 58.2327 126.468 59.8722 128.152L80.9519 149.678C78.5128 148.484 76.3483 152.056 78.8036 153.265C82.5188 155.095 86.234 156.925 89.9573 158.755C92.0895 159.803 94.2621 157.256 92.5498 155.498L74.4099 136.98C77.6163 138.915 80.8227 140.842 84.0291 142.777C86.0725 144.01 88.4066 141.132 86.6217 139.52C80.75 134.239 74.8865 128.951 69.0148 123.67L64.2901 119.413L77.0348 127.677C79.0297 128.967 81.485 125.952 79.6274 124.42C68.611 115.366 57.5946 106.321 46.5782 97.2677C52.9829 101.549 59.2342 106.055 65.4692 110.57C67.3995 111.964 69.9436 108.796 68.0618 107.313C58.58 99.8555 49.09 92.3984 39.6082 84.9412C49.5181 90.8828 59.1049 97.3322 68.5625 103.927C70.5171 105.289 73.0208 102.169 71.1551 100.67C66.9069 97.2596 62.6263 93.8898 58.3134 90.5522C58.7253 90.8263 59.1372 91.1085 59.5572 91.3826C61.851 92.9143 63.8862 89.3591 61.7136 87.8031L38.4856 71.1716C35.15 68.7773 31.7336 66.4393 28.3818 64.0208C42.4511 70.9378 55.5109 79.7494 68.4414 88.4723C70.4121 89.8025 72.9158 86.7067 71.034 85.2153C64.6454 80.1525 58.2569 75.0977 51.8603 70.0349C61.3502 75.4686 70.4928 81.4827 79.5951 87.5048C81.5738 88.8189 84.0614 85.7554 82.1876 84.2479C78.6824 81.4424 75.2095 78.6046 71.7608 75.7265C76.421 79.0722 81.0892 82.4098 85.7494 85.7554C87.7039 87.1582 90.1188 84.0705 88.342 82.4985C87.397 81.66 86.444 80.8297 85.499 79.9913C89.3677 82.3614 93.2363 84.7235 97.105 87.0937C99.1322 88.3352 101.531 85.4088 99.6975 83.8367C98.5184 82.8209 97.3311 81.8051 96.152 80.7894C98.4053 82.2889 100.651 83.7884 102.904 85.2879C104.883 86.6019 107.386 83.5143 105.497 82.0309C99.2453 77.1293 93.0021 72.2277 86.7509 67.3261C84.546 65.6009 82.3007 63.8918 80.112 62.1263C84.5864 64.5126 88.9639 67.0682 93.2283 69.7931C96.9435 72.3486 100.659 74.9123 104.382 77.476L104.309 77.484ZM69.6852 65.4639C69.2652 64.8512 68.8371 64.2546 68.401 63.658C69.2329 64.0611 70.0648 64.4642 70.8967 64.8592C71.0017 64.9157 71.1147 64.9479 71.2197 64.9802C73.1419 66.6328 75.0641 68.2774 76.9864 69.9301C74.5553 68.4387 72.1162 66.9472 69.6852 65.4639ZM74.7088 49.9449C73.675 49.0742 72.6331 48.2116 71.5912 47.3651C73.465 48.6066 75.3145 49.8723 77.1479 51.1622L74.7088 49.9529V49.9449Z" fill="#EF4444"/>
<path d="M113.5 76.9358C92.1915 50.8251 70.0671 25.3884 47.1597 0.663047C45.3344 -1.3121 42.3542 1.56597 44.0987 3.54918C42.8711 2.39634 40.1251 3.53305 40.5128 5.69362C43.5576 22.954 48.137 39.9241 54.2106 56.4105C55.1313 58.9016 59.2584 57.8293 58.3296 55.306C52.2635 38.8401 47.6795 21.8673 44.6318 4.58915C44.5753 4.25055 44.4541 3.97645 44.2845 3.75878C66.285 27.5089 87.5424 51.9039 108.033 76.8955C91.9602 79.572 75.7345 81.2731 59.4361 82.0067C57.4816 82.0954 56.9162 84.2398 57.7562 85.4088C57.7723 85.6587 57.8288 85.9167 57.95 86.1827C67.9598 108.151 78.9936 129.641 91.0153 150.58C92.356 152.91 96.047 150.822 94.7063 148.484C83.0403 128.151 72.3036 107.301 62.5294 85.9973C78.3836 85.1669 94.1813 83.4175 109.826 80.7813C110.294 80.7007 110.649 80.5153 110.9 80.2653C112.628 81.4988 115.059 78.8465 113.5 76.9358Z" fill="white"/>
<path d="M91.3464 152.04L22.9948 76.7746C17.2928 70.5025 11.5988 64.2223 5.89678 57.9503C8.23089 58.4904 10.8881 58.4017 13.0122 58.5791L58.3215 62.352C61.0595 62.5777 61.0433 58.434 58.3215 58.2082C49.09 57.4424 39.8586 56.6684 30.6271 55.9026L17.2039 54.782C14.8294 54.5804 12.4468 54.3869 10.0723 54.1854C8.44896 54.0483 6.17946 54.2338 5.01644 52.9358C3.49805 51.2428 1.12355 53.0487 1.47892 54.8626C0.235131 55.3463 -0.612904 57.0393 0.558193 58.3292L68.9098 133.594C75.3791 140.721 81.8484 147.839 88.3177 154.966C90.143 156.973 93.1475 154.031 91.3384 152.032L91.3464 152.04Z" fill="white"/>
</svg>
